<?xml version="1.0" standalone="no"?>
<!DOCTYPE svg PUBLIC "-//W3C//DTD SVG 20010904//EN"
 "http://www.w3.org/TR/2001/REC-SVG-20010904/DTD/svg10.dtd">
<svg version="1.0" xmlns="http://www.w3.org/2000/svg"
 width="3000.000000pt" height="2000.000000pt" viewBox="0 0 3000.000000 2000.000000"
 preserveAspectRatio="xMidYMid meet">

<g transform="translate(0.000000,2000.000000) scale(0.100000,-0.100000)"
fill="#000000" stroke="none">
<path d="M0 15798 c0 -2485 4 -4198 9 -4192 8 8 188 249 441 589 108 145 577
774 991 1330 682 914 835 1120 1078 1445 522 702 731 982 791 1060 15 19 85
114 157 210 71 96 309 416 529 710 437 586 757 1014 780 1045 8 11 72 97 142
190 70 94 266 357 436 585 279 375 355 474 331 431 -6 -10 -4 -12 4 -7 6 4 9
11 6 16 -3 5 41 71 98 147 57 76 117 157 133 180 17 24 34 40 37 36 4 -3 7 1
7 10 0 9 5 19 12 23 7 5 8 3 3 -6 -5 -8 -4 -11 3 -6 6 4 9 13 6 20 -3 8 -1 17
4 20 6 3 13 -1 16 -10 4 -10 -5 -29 -21 -49 -16 -18 -56 -71 -89 -117 -34 -45
-187 -252 -341 -458 -153 -206 -321 -431 -371 -500 -51 -69 -106 -143 -123
-165 -32 -42 -340 -456 -365 -490 -8 -11 -110 -148 -227 -305 -374 -503 -648
-871 -762 -1025 -61 -82 -204 -274 -316 -425 -113 -151 -277 -372 -365 -490
-88 -118 -253 -339 -365 -490 -113 -151 -272 -365 -354 -475 -82 -110 -233
-312 -335 -450 -102 -137 -252 -339 -333 -447 -80 -108 -232 -313 -338 -455
-504 -675 -694 -930 -799 -1073 -63 -85 -204 -273 -313 -419 l-197 -264 0
-5764 0 -5763 11568 0 11568 0 61 93 c202 307 422 641 655 992 145 220 307
465 360 545 52 80 200 305 330 500 129 195 304 461 390 590 85 129 274 415
420 635 145 220 343 519 439 665 360 546 481 725 491 722 5 -1 7 2 3 7 -7 12
182 297 195 294 5 -2 6 5 3 14 -5 12 -3 14 7 8 9 -5 11 -4 6 4 -4 6 8 32 28
60 20 27 36 52 36 56 0 3 12 22 27 41 20 26 28 32 35 22 7 -9 8 -7 4 7 -4 14
14 48 55 110 33 50 73 110 89 135 17 25 35 52 40 60 6 8 23 34 39 58 15 23 30
40 33 37 3 -3 8 1 12 10 4 11 2 14 -7 8 -6 -4 1 8 16 26 15 19 37 51 48 73 14
28 25 38 36 34 11 -5 14 -2 9 10 -7 18 37 87 49 76 4 -4 6 0 3 8 -6 17 26 63
36 53 3 -4 6 1 6 10 0 10 5 17 11 17 5 0 8 4 5 8 -8 14 33 74 46 66 7 -5 9 -2
5 8 -3 9 3 25 14 36 10 12 19 26 19 32 0 6 5 8 12 4 7 -5 9 -2 5 8 -7 19 20
61 34 53 5 -4 9 1 9 10 0 10 13 37 30 62 16 24 30 47 30 51 0 4 9 14 20 22 11
8 20 21 20 30 0 13 1 13 10 0 7 -11 5 -19 -10 -32 -11 -9 -20 -21 -20 -27 0
-6 -5 -11 -11 -11 -5 0 -8 -4 -5 -8 2 -4 1 -14 -5 -22 -7 -13 -9 -13 -10 0 -1
8 -4 2 -8 -15 -4 -16 -13 -29 -20 -27 -6 1 -11 -3 -10 -10 3 -20 -12 -49 -22
-42 -5 3 -9 -1 -9 -10 0 -18 -32 -76 -42 -76 -5 0 -8 -5 -8 -10 0 -6 -7 -22
-17 -36 -12 -19 -18 -22 -25 -12 -7 9 -8 8 -4 -5 7 -23 -40 -100 -56 -91 -7 4
-8 3 -4 -5 7 -11 -26 -68 -49 -83 -5 -4 -6 -8 -2 -8 5 0 -2 -14 -14 -31 -16
-24 -24 -28 -30 -17 -6 9 -8 5 -7 -12 2 -16 -2 -24 -10 -22 -8 1 -11 -2 -7 -7
5 -9 -63 -122 -165 -271 -6 -8 -23 -34 -39 -58 -15 -23 -31 -39 -36 -35 -4 5
-5 2 -1 -4 8 -15 -58 -106 -69 -95 -5 4 -5 1 -1 -6 10 -17 -21 -65 -36 -56 -6
4 -8 3 -4 -4 9 -14 -33 -84 -47 -75 -6 3 -7 1 -3 -5 9 -15 -23 -64 -36 -56 -6
4 -9 1 -6 -7 4 -13 -37 -86 -84 -149 -10 -14 -54 -79 -97 -145 -214 -330 -259
-394 -266 -387 -5 4 -5 2 -1 -5 7 -14 -71 -129 -86 -125 -5 1 -7 -2 -4 -7 9
-13 -55 -112 -67 -104 -6 3 -7 1 -3 -5 5 -8 -69 -127 -194 -312 -6 -8 -70
-105 -142 -215 -72 -110 -209 -318 -304 -462 -95 -144 -203 -308 -240 -365
-37 -57 -158 -240 -269 -408 -256 -386 -501 -758 -640 -970 -123 -188 -322
-490 -563 -855 -91 -137 -208 -315 -260 -395 -53 -80 -100 -151 -105 -157 -8
-10 196 -13 1011 -13 l1021 0 97 148 c54 81 181 273 282 427 102 154 267 404
367 555 100 151 276 417 390 590 115 173 326 493 470 710 143 217 326 493 404
612 79 120 148 215 154 211 6 -3 7 -1 3 5 -8 14 54 113 67 105 6 -3 7 -1 3 5
-7 12 143 238 156 234 5 -1 7 2 3 8 -9 14 34 72 47 64 7 -4 8 -2 4 5 -4 6 13
43 40 84 43 66 79 114 59 78 -5 -10 -4 -12 4 -7 6 4 9 11 6 16 -3 5 25 56 63
112 37 57 92 139 120 182 29 43 52 75 52 70 1 -5 6 3 13 17 26 56 123 199 135
199 7 0 10 5 7 10 -9 15 64 122 77 114 8 -5 9 -1 5 10 -5 11 -3 15 5 10 8 -5
9 -2 5 10 -6 14 -3 17 9 12 11 -4 15 -2 11 8 -5 13 36 84 57 98 5 3 11 13 12
22 3 22 33 61 47 61 6 0 11 9 9 19 -2 12 1 16 9 10 8 -5 11 -2 7 7 -6 16 16
41 28 31 4 -4 4 1 1 10 -3 10 4 27 20 45 15 15 26 30 25 33 -4 9 59 100 68
100 5 0 7 6 4 14 -3 7 7 23 23 36 15 12 26 23 24 23 -3 1 0 10 6 21 9 16 11
17 16 2 4 -10 3 -15 -2 -12 -5 3 -12 -6 -15 -20 -9 -34 -61 -105 -71 -96 -5 4
-5 -1 -2 -10 4 -12 2 -15 -8 -12 -10 4 -12 0 -8 -15 3 -12 1 -21 -4 -21 -5 0
-19 -19 -32 -43 -30 -59 -92 -142 -102 -140 -4 2 -6 -4 -3 -12 5 -11 2 -13
-10 -9 -9 3 -16 1 -16 -5 0 -6 4 -11 9 -11 5 0 -20 -44 -55 -97 -36 -54 -69
-97 -74 -96 -5 2 -7 -3 -4 -11 3 -8 0 -17 -7 -22 -8 -5 -10 -3 -4 6 6 9 4 11
-4 6 -7 -5 -10 -14 -7 -22 5 -14 -9 -29 -17 -17 -2 5 -2 2 -1 -4 5 -19 -36
-84 -49 -76 -6 3 -7 1 -3 -6 9 -13 -32 -74 -44 -66 -5 3 -12 0 -16 -6 -4 -8
-3 -9 4 -5 20 12 14 -1 -39 -81 -45 -70 -76 -111 -54 -74 5 10 4 12 -4 7 -6
-4 -9 -11 -6 -16 3 -5 -27 -58 -66 -117 -64 -96 -107 -154 -84 -114 5 10 4 12
-4 7 -6 -4 -9 -11 -6 -16 3 -5 -6 -29 -21 -52 -24 -38 -369 -562 -447 -680
-17 -26 -35 -44 -41 -41 -5 3 -6 1 -2 -5 9 -15 -63 -123 -77 -115 -6 3 -7 1
-3 -5 3 -6 -96 -165 -220 -354 -125 -189 -273 -413 -329 -498 -197 -300 -340
-517 -503 -765 -357 -541 -494 -749 -637 -965 -81 -124 -177 -268 -211 -321
-35 -53 -64 -99 -64 -102 0 -4 1064 -7 2365 -7 l2365 0 0 10000 0 10000
-10764 0 c-10742 0 -10765 0 -10779 -20 -8 -11 -17 -17 -22 -12 -4 4 -5 -1 -1
-12 5 -14 3 -17 -10 -12 -11 4 -15 2 -11 -7 6 -17 -41 -79 -54 -71 -6 3 -9 0
-7 -7 3 -18 -33 -79 -44 -73 -4 3 -8 -1 -8 -9 0 -8 -7 -21 -16 -28 -9 -7 -20
-24 -25 -37 -5 -14 -14 -20 -21 -16 -7 5 -9 2 -5 -8 3 -9 -3 -24 -14 -34 -10
-9 -19 -14 -19 -10 0 4 -7 1 -15 -8 -9 -8 -14 -19 -13 -23 6 -19 -94 -157
-106 -146 -3 4 -6 0 -6 -8 0 -8 -9 -25 -20 -39 -18 -23 -20 -23 -19 -5 0 21
47 91 64 93 6 1 10 8 10 15 1 6 7 11 14 9 9 -2 11 3 7 15 -4 9 -4 14 0 11 3
-4 14 8 24 27 32 64 93 136 103 122 5 -7 6 -4 2 11 -3 12 -3 22 2 22 5 0 19
18 33 40 16 26 27 35 32 27 5 -8 8 -7 8 6 0 9 5 17 10 17 6 0 10 5 10 11 0 5
-6 7 -12 3 -7 -4 -5 2 6 14 10 12 23 19 29 15 6 -4 8 0 4 10 -4 11 -2 14 9 10
10 -4 14 -1 13 8 -5 25 42 95 55 82 3 -4 6 -1 6 5 0 9 -261 12 -1069 12
l-1070 0 -19 -25 c-23 -29 -28 -30 -36 -9 -4 11 -2 15 8 11 8 -3 17 1 20 9 5
12 -416 14 -3139 14 l-3145 0 0 -4202z m6219 4085 c-24 -32 -51 -69 -60 -84
-9 -14 -24 -26 -33 -26 -18 0 -20 6 -6 27 9 13 11 13 21 0 9 -13 10 -12 5 3
-6 19 46 101 58 90 3 -3 6 -1 6 6 0 23 32 63 43 52 7 -7 -4 -29 -34 -68z m-89
-120 c0 -2 -23 -35 -52 -74 -42 -55 -54 -66 -61 -54 -9 17 9 49 23 40 5 -3 12
0 16 6 4 8 3 9 -4 5 -20 -12 -13 5 18 43 16 21 36 38 45 38 8 0 15 -2 15 -4z
m1850 -428 c-23 -30 -46 -53 -50 -50 -4 3 -7 -3 -6 -13 0 -9 -5 -16 -12 -14
-8 1 -11 -2 -7 -8 9 -14 -14 -42 -28 -33 -5 3 -7 2 -4 -4 4 -6 -1 -19 -9 -29
-14 -17 -15 -17 -10 -1 4 11 2 16 -5 12 -5 -4 -7 -15 -4 -25 4 -12 -1 -22 -12
-29 -10 -5 -16 -11 -13 -13 9 -6 -43 -67 -53 -61 -6 3 -7 1 -3 -5 7 -12 -73
-124 -84 -117 -4 3 -10 -5 -14 -18 -8 -30 -145 -213 -158 -209 -5 1 -7 -2 -3
-7 3 -6 -25 -50 -62 -98 -38 -48 -90 -118 -116 -155 -27 -38 -50 -68 -53 -68
-3 0 -2 5 2 12 4 7 3 8 -5 4 -6 -4 -9 -11 -6 -16 5 -8 -37 -71 -92 -140 -7 -8
-40 -52 -73 -98 -33 -46 -65 -80 -70 -77 -5 3 -8 0 -5 -7 4 -10 -174 -258
-346 -483 -36 -47 -264 -353 -533 -715 -104 -140 -248 -334 -320 -430 -71 -96
-207 -278 -301 -405 -94 -126 -230 -309 -301 -405 -72 -96 -229 -308 -350
-470 -121 -162 -294 -394 -384 -515 -223 -300 -570 -766 -1002 -1346 -200
-268 -464 -623 -588 -790 -124 -167 -244 -328 -268 -359 -23 -30 -63 -84 -89
-120 -26 -36 -185 -249 -353 -475 -168 -225 -346 -464 -395 -530 -49 -66 -227
-304 -395 -530 -168 -225 -391 -525 -495 -665 -318 -427 -401 -535 -411 -533
-25 5 -3 43 131 223 80 107 171 230 203 273 31 43 169 227 305 410 137 183
292 391 345 462 93 126 420 564 917 1230 299 401 588 789 857 1150 114 154
222 298 239 320 17 22 88 117 157 210 70 94 244 328 388 520 143 193 356 478
473 635 116 157 245 330 287 385 41 55 110 147 153 205 43 58 258 346 478 640
362 486 536 718 999 1340 84 113 164 221 179 240 15 19 139 186 277 370 647
868 792 1058 801 1053 6 -3 7 -1 3 6 -10 15 13 43 27 34 5 -3 7 -1 4 4 -4 6
12 36 34 67 42 59 52 68 43 39 -5 -15 -4 -15 4 -3 6 8 8 18 6 22 -7 11 66 104
78 100 5 -1 7 2 3 7 -8 14 85 132 98 124 6 -3 7 -1 3 5 -4 6 -1 20 6 31 11 18
14 18 21 5 6 -11 -3 -31 -33 -69z m20014 -12011 c3 -8 2 -12 -4 -9 -6 3 -10
10 -10 16 0 14 7 11 14 -7z m-120 -190 c3 -8 2 -12 -4 -9 -6 3 -10 10 -10 16
0 14 7 11 14 -7z m-36 -69 c-3 -3 -9 2 -12 12 -6 14 -5 15 5 6 7 -7 10 -15 7
-18z m-45 -55 c-9 -16 -18 -28 -20 -27 -6 6 10 47 19 47 5 0 6 5 2 12 -4 7 -3
8 5 4 8 -5 7 -15 -6 -36z m-43 -74 c0 -3 -4 -8 -10 -11 -5 -3 -10 -1 -10 4 0
6 5 11 10 11 6 0 10 -2 10 -4z m-37 -53 c-9 -16 -18 -29 -19 -31 -1 -2 -4 4
-8 13 -3 9 -2 13 4 10 6 -3 10 3 10 14 0 12 7 21 15 21 13 0 13 -4 -2 -27z
m-63 -94 c0 -6 -4 -7 -10 -4 -5 3 -10 11 -10 16 0 6 5 7 10 4 6 -3 10 -11 10
-16z m-20 -29 c0 -5 -2 -10 -4 -10 -3 0 -8 5 -11 10 -3 6 -1 10 4 10 6 0 11
-4 11 -10z m-20 -14 c0 -2 -8 -10 -17 -17 -16 -13 -17 -12 -4 4 13 16 21 21
21 13z m-44 -65 c0 -11 -5 -17 -10 -14 -5 4 -7 0 -4 -8 3 -8 -1 -24 -9 -34
-13 -19 -14 -18 -7 10 6 29 22 65 27 65 2 0 3 -9 3 -19z m-53 -81 c-5 -19 -23
-39 -23 -25 0 9 20 45 24 45 2 0 2 -9 -1 -20z m-20 -43 c6 3 2 -5 -9 -19 -10
-14 -23 -23 -29 -20 -5 3 -4 7 3 10 7 2 12 13 13 25 0 12 3 16 6 9 2 -6 10 -9
16 -5z m-50 -68 c-6 -6 -9 -17 -7 -23 6 -15 -32 -51 -40 -38 -6 11 43 86 52
78 3 -4 1 -11 -5 -17z m-55 -99 c-9 -14 -14 -16 -20 -7 -4 7 -8 17 -8 22 0 6
5 3 10 -5 8 -13 10 -12 10 3 0 10 4 15 10 12 6 -4 5 -13 -2 -25z m1987 -149
c-9 -8 -36 -10 -30 -2 2 4 11 8 20 8 8 0 13 -3 10 -6z m-114 -144 c-10 -9 -11
-8 -5 6 3 10 9 15 12 12 3 -3 0 -11 -7 -18z m-55 -99 c4 -7 3 -8 -4 -4 -7 4
-12 2 -12 -5 0 -7 -3 -10 -6 -6 -6 5 3 27 11 27 2 0 7 -5 11 -12z m-58 -98
c-12 -16 -23 -30 -25 -30 -7 0 12 37 25 48 24 19 24 15 0 -18z m-46 -52 c-7
-7 -12 -8 -12 -2 0 14 12 26 19 19 2 -3 -1 -11 -7 -17z m-45 -81 c-1 -5 -11
-11 -20 -13 -9 -1 -15 2 -11 7 3 5 10 6 16 3 8 -5 9 -1 5 10 -4 11 -3 15 4 11
5 -4 8 -12 6 -18z m-54 -71 c3 -8 -4 -22 -15 -33 -14 -11 -18 -13 -12 -3 9 15
10 20 13 40 2 14 8 12 14 -4z m-33 -69 c0 -8 -3 -8 -9 1 -6 10 -10 8 -14 -9
-4 -13 -9 -20 -12 -17 -10 9 15 49 26 43 5 -4 9 -12 9 -18z m-46 -53 c3 -8 2
-13 -3 -10 -13 9 -34 -21 -25 -36 4 -7 4 -10 -1 -6 -4 4 -15 2 -24 -5 -8 -6
-2 7 14 30 17 24 31 43 31 43 1 0 5 -7 8 -16z m-64 -84 c0 -5 -5 -10 -11 -10
-5 0 -7 5 -4 10 3 6 8 10 11 10 2 0 4 -4 4 -10z m-23 -61 c-6 -10 -13 -16 -16
-13 -3 2 0 9 6 15 6 6 9 19 6 28 -4 13 -3 13 5 2 7 -10 7 -20 -1 -32z m-27
-30 c0 -11 -4 -17 -10 -14 -5 3 -11 1 -11 -4 -3 -26 -4 -30 -11 -37 -15 -14
-8 27 8 51 20 30 24 31 24 4z m-46 -65 c3 -8 2 -12 -4 -9 -6 3 -10 0 -10 -8 0
-8 -11 -34 -23 -56 -22 -38 -25 -40 -38 -24 -12 15 -12 16 4 10 9 -3 17 -5 17
-3 0 3 3 12 7 22 5 13 3 15 -8 9 -12 -8 -12 -6 0 8 7 9 18 14 23 11 5 -3 8 0
7 7 -2 13 10 49 16 49 2 0 6 -7 9 -16z m-92 -152 c-10 -9 -21 -24 -25 -32 -4
-11 -6 -9 -6 5 -1 11 8 26 19 33 12 7 17 18 14 29 -5 16 -4 16 6 0 9 -15 8
-21 -8 -35z"/>
<path d="M6086 19733 c-6 -14 -5 -15 5 -6 7 7 10 15 7 18 -3 3 -9 -2 -12 -12z"/>
<path d="M7956 19333 c-6 -14 -5 -15 5 -6 7 7 10 15 7 18 -3 3 -9 -2 -12 -12z"/>
</g>
</svg>
